<svg xmlns="http://www.w3.org/2000/svg" viewBox="0 0 557.55 566.93">
    <title>logo_color</title>
    <circle cx="274.98" cy="283.17" r="237.24" style="fill:#17528a"/>
    <path d="M52.82,247.76l-.71,4.75-2.55-.38,1.9-12.59,2.55.39-.73,4.79,14.12,2.14-.46,3Zm11.59-18.1c4.38.91,5.7,4.41,5.06,7.44a5.88,5.88,0,0,1-7.38,4.69c-3.92-.81-5.78-3.89-5-7.48S60.79,228.91,64.41,229.66Zm-1.75,9c2.3.48,4.27-.29,4.66-2.12s-1.08-3.27-3.48-3.77c-1.86-.38-4.17,0-4.59,2.06S60.68,238.25,62.66,238.67ZM63.33,226c-1.54-.43-2.8-.74-3.92-1l.73-2.6,1.85.36v0a4.73,4.73,0,0,1-.93-4.61c.76-2.69,3.7-4.28,7.35-3.25,4.24,1.2,5.53,4.45,4.78,7.12a4,4,0,0,1-2.5,2.85v0l6.06,1.71-.83,3Zm3.75-2.14a3.6,3.6,0,0,0,.84.14,2.8,2.8,0,0,0,2.81-2c.53-1.87-.72-3.42-3-4.07-2.07-.59-4,0-4.58,1.85a2.85,2.85,0,0,0,1.44,3.26,2.76,2.76,0,0,0,.72.33Zm-.56-21.52,2.29.8-1.64,4.69,9.21,3.21-1,2.9-11.49-4Zm10.85-10.84c4.14,1.71,4.78,5.39,3.59,8.25A5.89,5.89,0,0,1,72.83,203c-3.7-1.53-5-4.9-3.55-8.29S74,190.12,77.37,191.54ZM74,200.07c2.17.9,4.25.51,5-1.22s-.45-3.41-2.71-4.35c-1.76-.72-4.09-.77-4.9,1.17S72.1,199.29,74,200.07Zm-.49-14a33.19,33.19,0,0,1,1.69-4.1c.91-1.84,2.8-5,5.31-3.79a2.82,2.82,0,0,1,1.31,3.44l0,0c1-1.49,2.49-2.17,4-1.42,3,1.49,1.34,5.57.25,7.77-.67,1.37-1.48,2.78-1.87,3.4Zm5.61-.57.57-1.15c.7-1.41.87-2.77-.16-3.28s-1.72.09-2.53,1.73a12.67,12.67,0,0,0-.57,1.37ZM83.93,188a11.82,11.82,0,0,0,.73-1.31c.62-1.26,1-2.94-.24-3.58s-2.23.41-3.08,2.13l-.59,1.19Zm6.86-21.68c3.87,2.25,4,6,2.46,8.66a5.89,5.89,0,0,1-8.48,2.13c-3.46-2-4.27-5.51-2.42-8.69S87.59,164.41,90.79,166.27Zm-4.5,8c2,1.18,4.15,1.08,5.09-.55s0-3.44-2.12-4.66c-1.64-1-4-1.31-5,.5S84.54,173.25,86.29,174.27Zm8-16L96,159.39l-3.49,5.34-1.78-1.16Zm4.47-13.87,9.83,7.19-1.84,2.5-7.9-5.79L96.1,152l7.91,5.8-1.82,2.48L92.37,153Zm5.79-.82c-1.22-1-2.25-1.83-3.16-2.54l1.75-2.06,1.53,1.1,0,0a4.76,4.76,0,0,1,1-4.58c1.81-2.14,5.14-2.36,8,.09,3.37,2.84,3.2,6.33,1.41,8.45a4,4,0,0,1-3.46,1.57l0,0,4.81,4.06-2,2.35Zm4.3-.39a3.64,3.64,0,0,0,.71.47,2.8,2.8,0,0,0,3.39-.68c1.25-1.48.76-3.41-1.08-5-1.64-1.39-3.65-1.72-4.93-.21a2.88,2.88,0,0,0,0,3.57,3.3,3.3,0,0,0,.51.6ZM124,124.89c3.21,3.12,2.45,6.77.29,9a5.89,5.89,0,0,1-8.75,0c-2.87-2.79-2.8-6.38-.24-9S121.36,122.32,124,124.89Zm-6.3,6.68c1.69,1.63,3.76,2,5.07.7s.83-3.34-.93-5c-1.36-1.33-3.51-2.23-5-.73S116.27,130.16,117.72,131.57Zm4.8-13.52,2.9-2.57,4.81,2.82c.71.43,1.93,1.16,2.81,1.74l0,0c-.39-.82-1.05-2.35-1.57-3.55l-2-4.65,2.9-2.57,8.66,8.59L139,119.74s-5.67-5.83-6.67-6.92l-.06.05c.63,1.32.91,1.94,1.71,3.81l2.17,5.39-1.66,1.47-4.88-2.82c-1-.63-2.52-1.64-3.51-2.3l-.08.07c1,1.13,2,2.4,2.76,3.33l3.28,4.07L130,127.74Zm16-13.63,2.3,3.08a12.87,12.87,0,0,1,1.48-1.28c2.14-1.6,5-2.33,6.82.11a3.57,3.57,0,0,1,.63,3.34,8.89,8.89,0,0,1-3.37,4.23c-1,.78-2.12,1.49-3.07,2.07l-7.25-9.71Zm6,8.12a8.66,8.66,0,0,0,1.11-.73c1.16-.87,2-2.24,1.05-3.56s-2.47-.84-3.57,0a10.57,10.57,0,0,0-1.09,1ZM148,97.33l7.29,9.75-2.46,1.84-7.29-9.75Zm6.33-4.16,5.13,8.34,3-1.86-5.13-8.34,2.6-1.6,5.13,8.35,3-1.86L163,87.85l2.58-1.58,6.37,10.37-13.82,8.49-6.37-10.37ZM178.4,79.63l5.54,10.85-2.76,1.41-4.46-8.73-2.94,1.5L175,87c1.44,2.83,2.11,4.9,1.31,6.52A4,4,0,0,1,174,95.82l-1.38-2a2.46,2.46,0,0,0,.89-1.13c.46-1.08-.09-2.37-1.16-4.46l-2.24-4.39ZM187,83.34c.94,2,2.9,2.17,4.69,1.4a9.18,9.18,0,0,0,2.88-1.85l1.26,1.77a11.62,11.62,0,0,1-3.6,2.38c-3.63,1.57-6.72.27-8.2-3.15-1.34-3.1-.72-6.83,2.85-8.37s6.11.89,7.17,3.35a8,8,0,0,1,.43,1.23Zm4.06-4.1c-.43-1-1.62-2.54-3.5-1.73a3,3,0,0,0-1.41,3.85ZM198,71.36l1.56,4.38L204,74.16l-1.57-4.38,2.9-1,4.09,11.46-2.9,1-1.72-4.83L200.38,78l1.72,4.82-2.9,1-4.09-11.47Zm14.38-4.75,1.26,4.47,4.53-1.27-1.26-4.48,3-.83,3.29,11.73-3,.83-1.38-4.94-4.53,1.27,1.39,4.94-3,.83-3.3-11.72ZM233.31,74l-.47-1.28-.08,0a4.53,4.53,0,0,1-3.18,2.34,3.62,3.62,0,0,1-4.49-2.76c-.64-3,1.7-5.09,6.11-6l0-.2c-.17-.78-.76-2-2.86-1.57a6.49,6.49,0,0,0-3,1.56l-1-1.83a8.85,8.85,0,0,1,4.08-2c3.82-.81,5.43,1.38,6,4l.91,4.3a19.48,19.48,0,0,0,.78,2.83Zm-1.62-5.73c-2.14.4-4.07,1.29-3.69,3.1a1.62,1.62,0,0,0,2.08,1.35,2.5,2.5,0,0,0,2-2.13,2.57,2.57,0,0,0,0-.69Zm17.6,3.11-3,.44-.7-4.77-1.13.16a2.38,2.38,0,0,0-1.74,1.07c-.67.78-.77,2.11-1,3.21a7.45,7.45,0,0,1-.33,1l-3.26.48a6.44,6.44,0,0,0,.55-1.44c.31-1.14.52-2.74,1.3-3.73a3,3,0,0,1,1.31-1v-.07c-1.46.06-3.3-.63-3.57-2.51a3.05,3.05,0,0,1,1.44-3.07,10,10,0,0,1,4.14-1.38,32.87,32.87,0,0,1,4.32-.36Zm-4.5-9.73a8.18,8.18,0,0,0-1.53.1c-1.34.2-2.63.86-2.43,2.2s1.77,1.59,3,1.41c.71-.1,1.11-.16,1.5-.24Zm23.64-3.91.64,12.16L266,70l-.52-9.78-4.57.24.52,9.78-3.07.17-.65-12.16Zm11,12.18-.19-1.36h-.07a4.49,4.49,0,0,1-3.62,1.59,3.61,3.61,0,0,1-3.79-3.66c0-3.08,2.77-4.6,7.27-4.53v-.2c0-.8-.31-2.13-2.46-2.15a6.42,6.42,0,0,0-3.28.87l-.58-2a8.79,8.79,0,0,1,4.41-1c3.9,0,5,2.53,5,5.18l0,4.4a20.71,20.71,0,0,0,.14,2.92Zm-.34-6c-2.18-.07-4.26.38-4.27,2.23a1.61,1.61,0,0,0,1.73,1.77A2.5,2.5,0,0,0,279,66.29a2,2,0,0,0,.11-.67Zm17.42-5.28-.89,12.14-3.1-.23.72-9.77L290,60.56l-.19,2.64c-.24,3.17-.74,5.29-2.27,6.25a4.07,4.07,0,0,1-3.11.78l-.15-2.42a2.56,2.56,0,0,0,1.34-.5c1-.69,1.15-2.08,1.33-4.42l.36-4.91Zm9.38,13.45,0-1.37h-.07A4.51,4.51,0,0,1,302,71.85a3.61,3.61,0,0,1-3.3-4.1c.42-3,3.33-4.22,7.78-3.58l0-.2c.11-.79,0-2.15-2.16-2.44A6.47,6.47,0,0,0,301,62l-.32-2.07a8.68,8.68,0,0,1,4.5-.46c3.87.53,4.64,3.13,4.29,5.75l-.6,4.36a19.89,19.89,0,0,0-.23,2.92Zm.41-6c-2.15-.34-4.27-.16-4.52,1.68a1.61,1.61,0,0,0,1.49,2,2.51,2.51,0,0,0,2.61-1.34,2.38,2.38,0,0,0,.19-.65Zm16.59-3.35-.45,2.33-3.58-.7L317,74.06l-3-.59,1.88-9.62-3.58-.7.45-2.33ZM329,76.87l.14-1.36-.07,0a4.5,4.5,0,0,1-3.89.69,3.61,3.61,0,0,1-2.81-4.46c.75-3,3.78-3.81,8.13-2.67l.05-.2c.2-.77.21-2.14-1.87-2.67a6.47,6.47,0,0,0-3.4.07l-.09-2.09a8.83,8.83,0,0,1,4.53,0c3.78,1,4.26,3.64,3.61,6.21l-1.08,4.26a19.4,19.4,0,0,0-.56,2.88ZM330.11,71c-2.09-.58-4.22-.63-4.68,1.16a1.62,1.62,0,0,0,1.27,2.13,2.51,2.51,0,0,0,2.74-1,2.55,2.55,0,0,0,.26-.63Zm26,7.58c.67-2.07,1.47-4.57,2.29-6.69l-.07,0c-1.24,1.73-2.69,3.62-4.13,5.34l-4.85,6-2.23-.83.41-7.54c.15-2.24.39-4.6.7-6.73h0c-.84,2-5.5,12.83-5.5,12.83l-2.7-1,7-15.39,3.79,1.42L350.39,73c-.13,2.06-.33,4.12-.59,6l.07,0c1.06-1.55,2.32-3.29,3.62-4.92L358,68.66l3.75,1.4-5,16.13-2.81-1Zm16.69,8.32c-1.91,4-5.61,4.5-8.41,3.18a5.89,5.89,0,0,1-2.84-8.28c1.71-3.61,5.13-4.71,8.45-3.14S374.36,83.55,372.78,86.9Zm-8.35-3.81c-1,2.13-.72,4.22,1,5s3.42-.29,4.47-2.5c.81-1.72,1-4-.93-5S365.3,81.26,364.43,83.09Zm16.19,14.73a8.8,8.8,0,0,1-3.32-1.12c-3.33-1.83-4.33-5.15-2.51-8.46s5.32-4.49,9.07-2.43a7.94,7.94,0,0,1,2.33,1.94l-1.6,1.75a5.39,5.39,0,0,0-1.8-1.54,3.95,3.95,0,0,0-3.8,6.91,6.14,6.14,0,0,0,2.36.75Zm11.11-7L389,95.06l.38.24L395.28,93,398.37,95l-6.95,2c1.28,1.1,1.45,2.76,1.11,4.85-.16,1-.5,2.35-.59,3.53l-2.71-1.7a18,18,0,0,1,.43-2.8c.33-1.74,0-2.91-1.38-3.76l-.34-.22-2.69,4.28-2.6-1.64,6.47-10.31Zm14.67,17.27a6,6,0,0,1-8.85,1.59,5.89,5.89,0,0,1-1.28-8.66c2.34-3.24,5.9-3.69,8.88-1.54S408.57,105.05,406.4,108.05Zm-7.51-5.27c-1.37,1.91-1.48,4,0,5.12s3.42.34,4.86-1.65c1.11-1.54,1.69-3.8,0-5S400.08,101.14,398.89,102.78Zm13.72,2.75a31.77,31.77,0,0,1,3.6,2.59c1.58,1.3,4.26,3.87,2.48,6a2.81,2.81,0,0,1-3.65.49l0,0c1.21,1.36,1.54,2.93.46,4.23-2.14,2.59-5.74,0-7.63-1.52-1.17-1-2.36-2.09-2.87-2.61Zm-4.19,9.74a14.63,14.63,0,0,0,1.11,1c1.08.89,2.63,1.69,3.54.59s.12-2.27-1.36-3.49l-1-.85Zm3.46-4.15,1,.82c1.21,1,2.5,1.48,3.23.59s.3-1.7-1.11-2.86a11.58,11.58,0,0,0-1.2-.86Zm10.2,18.21a8.75,8.75,0,0,1-2.95-1.89c-2.78-2.59-2.94-6-.37-8.81s6.26-3.06,9.39-.15a7.83,7.83,0,0,1,1.79,2.45l-2,1.31a5.65,5.65,0,0,0-1.38-1.93,3.94,3.94,0,0,0-5.37,5.76,6,6,0,0,0,2.1,1.31Zm12.47-4.13-3.65,3.49.31.33,6.24-.78,2.52,2.64-7.22.19c1,1.38.74,3-.11,5-.38.9-1.05,2.15-1.43,3.28L429,137a17,17,0,0,1,1.1-2.61c.74-1.61.68-2.84-.42-4l-.28-.29-3.65,3.49-2.13-2.22,8.8-8.42Zm10,20.35c-3.42,2.88-7,1.76-9-.61a5.89,5.89,0,0,1,.87-8.71c3.06-2.58,6.63-2.14,9,.67S447.42,143.17,444.58,145.55Zm-6-6.94c-1.8,1.51-2.41,3.54-1.21,5s3.24,1.17,5.11-.41c1.46-1.22,2.58-3.27,1.22-4.88S440.13,137.31,438.58,138.61Zm14.5,8.3-3.53,2.58c-1.56,1.13-2.65,1.84-4.08,2.76l0,.06c1.54-.32,2.48-.55,3.88-.79l6.38-.94,2.19,3-9.83,7.18-1.73-2.37,3.52-2.56c1.57-1.15,2.34-1.62,4.27-2.87l-.06-.08c-1.52.37-2.46.56-3.77.77-2,.29-4.44.7-6.67,1l-2.17-3,9.84-7.18Zm4.77-1.91c-.84.68-1.18,1.48-.68,2.17s1.41.65,2.33.1l1.2,1.63a3.25,3.25,0,0,1-4.77-.89c-1.32-1.81-.8-3.43.72-4.66Zm6.51,30.15c-3.85,2.28-7.18.59-8.76-2.07a5.89,5.89,0,0,1,2.29-8.45c3.44-2,6.88-1,8.76,2.13S467.54,173.27,464.36,175.15Zm-4.79-7.82c-2,1.19-3,3.09-2,4.7s3,1.68,5.1.43c1.64-1,3.07-2.81,2-4.61S461.31,166.29,459.57,167.33Zm19.1,15.27a17.12,17.12,0,0,1-1.66-2.19,5.74,5.74,0,0,0-3.53-2.78,7,7,0,0,0-3.7.38l0,.09a4.58,4.58,0,0,1,4.08,2.54c1.44,2.83.35,5.79-3,7.48-3.52,1.77-6.79.74-8.4-2.46-1.93-3.81.59-7.1,4.47-9.06,2.65-1.34,5.15-1.78,7.37-1.14a7.42,7.42,0,0,1,4.58,3.46,28.51,28.51,0,0,0,2,2.73Zm-7-1.61a2.48,2.48,0,0,0-2.15-1.38,4.58,4.58,0,0,0-2.51.54c-1.6.81-3.44,2.66-2.51,4.51s3.13,1.59,4.87.71S472.64,183,471.65,181Zm10,16.84-11.21,4.75-1.21-2.85,9-3.83-1.29-3-2.44,1c-2.92,1.24-5,1.75-6.59.84a4,4,0,0,1-2.12-2.42l2.09-1.23a2.47,2.47,0,0,0,1.06,1c1,.53,2.37.08,4.53-.84l4.53-1.92ZM474,212.33l1.21-.64,0-.07a4.5,4.5,0,0,1-2.73-2.86A3.61,3.61,0,0,1,474.6,204c2.9-1,5.27,1,6.74,5.29l.19-.06c.75-.27,1.89-1,1.18-3.05a6.51,6.51,0,0,0-1.94-2.79l1.69-1.23a8.78,8.78,0,0,1,2.48,3.8c1.29,3.68-.67,5.56-3.17,6.44l-4.15,1.46a18.76,18.76,0,0,0-2.71,1.14Zm5.48-2.35c-.67-2.07-1.81-3.87-3.55-3.26a1.61,1.61,0,0,0-1.07,2.23,2.48,2.48,0,0,0,2.37,1.71,2,2,0,0,0,.67-.13Zm-.74,16.66a8.93,8.93,0,0,1-1.55-3.15c-1.05-3.65.6-6.7,4.22-7.74s6.94.61,8.12,4.72a7.67,7.67,0,0,1,.27,3l-2.36.1a5.44,5.44,0,0,0-.19-2.36,3.94,3.94,0,0,0-7.57,2.17,6,6,0,0,0,1.13,2.2Zm14.21,9.09-2.31.52-.81-3.56-9.56,2.17-.68-3,9.56-2.17-.81-3.56,2.32-.52Zm1,5.6-4.32.7c-1.9.31-3.19.44-4.89.62l0,.07c1.51.42,2.46.64,3.81,1.05l6.11,2,.6,3.67-12,2-.47-2.88,4.29-.71c1.92-.31,2.82-.38,5.11-.63v-.1c-1.53-.35-2.46-.61-3.71-1-1.93-.65-4.28-1.38-6.42-2.09l-.6-3.63,12-2Z"
          style="fill:#e8e6e6"/>
    <path d="M65,348.79c2-.72,4.53-1.59,6.72-2.22l0-.07c-2.13.06-4.51,0-6.76-.07l-7.69-.25-.68-2.28,6.25-4.22c1.87-1.24,3.91-2.47,5.79-3.5l0-.05c-2.12.56-13.55,3.35-13.55,3.35l-.83-2.75L70.7,333l1.16,3.87-5.86,4c-1.72,1.14-3.49,2.22-5.16,3.16l0,.08c1.88-.1,4-.14,6.11-.08l7.13.29,1.15,3.83-15.87,5.76-.86-2.87Zm5.86,17.6c-4.17,1.63-7.18-.57-8.31-3.46a5.88,5.88,0,0,1,3.62-8c3.73-1.46,7,.09,8.3,3.51S74.32,365,70.88,366.39Zm-3.46-8.49c-2.19.85-3.42,2.57-2.74,4.32s2.69,2.14,5,1.24c1.77-.69,3.49-2.27,2.72-4.23S69.3,357.16,67.42,357.9ZM69,370.39a6.89,6.89,0,0,0,.51,3.2c.56,1.23,1.31,1.54,2,1.21s.93-1,.78-2.56c-.24-2.5.52-3.95,1.83-4.52,2-.9,4.22,0,5.39,2.58a7.07,7.07,0,0,1,.69,3.24L78,373.9a5.46,5.46,0,0,0-.43-2.63c-.46-1-1.19-1.33-1.87-1s-.81,1-.66,2.64c.19,2.34-.41,3.74-2,4.51-2,.92-4.18,0-5.52-2.91a7.81,7.81,0,0,1-.77-3.72Zm6.72,19.19a8.83,8.83,0,0,1-2.15-2.77c-1.76-3.37-.76-6.68,2.59-8.43s6.92-.8,8.9,3a7.6,7.6,0,0,1,.86,2.91l-2.29.57a5.44,5.44,0,0,0-.66-2.28,3.94,3.94,0,0,0-7,3.65,6,6,0,0,0,1.54,1.93ZM88,399c-3.84,2.3-7.18.63-8.77-2a5.9,5.9,0,0,1,2.25-8.46c3.43-2.06,6.89-1.06,8.77,2.09S91.19,397.09,88,399Zm-4.82-7.81c-2,1.21-3,3.11-2,4.72s3,1.67,5.11.41c1.63-1,3.06-2.83,2-4.63S84.93,390.14,83.2,391.18Zm12.28,8.31-3.77,4.23c-.9,1-1.83,2-2.78,2.92l0,0c1.23-.56,2.56-1,3.78-1.45l5.44-1.92,1.44,2-3.52,4.36c-.95,1.13-1.85,2.16-2.77,3.15l0,0c1.2-.6,2.44-1.14,3.79-1.7l5.19-2,1.74,2.47-12.15,3.9-1.64-2.32,3.2-4a37.09,37.09,0,0,1,2.66-3l0,0a31.31,31.31,0,0,1-3.72,1.49l-4.94,1.6-1.66-2.35,7.87-10Zm16.75,15.06a27.71,27.71,0,0,1,3.32,3.27c1.59,1.83,2.37,3.34,2.4,4.81a4.25,4.25,0,0,1-1.6,3.31,4.49,4.49,0,0,1-5.19.48l0,.05c.44,1.2,0,2.51-.91,3.9a34.13,34.13,0,0,0-2.68,4.09l-2.08-2.4a23.37,23.37,0,0,1,2.26-3.46c1.34-1.8,1.35-2.86.24-4.22l-1-1.17-5.23,4.55-2-2.3Zm-3.61,7.19,1.19,1.37c1.37,1.57,3,1.83,4.31.73s1.19-2.75-.13-4.26a8.59,8.59,0,0,0-1.36-1.34Zm6.32,12.85c-1.52,1.6-1,3.49.39,4.88a9.12,9.12,0,0,0,2.76,2l-1.19,1.82a11.43,11.43,0,0,1-3.52-2.5c-2.78-2.81-2.69-6.17,0-8.78,2.41-2.38,6.1-3.15,8.85-.37s1.37,6-.53,7.89a7.56,7.56,0,0,1-1,.85Zm5.29,2.29c.81-.77,1.78-2.42.34-3.88a3,3,0,0,0-4.1.08Zm15.62,7.86c-.59.58-1.29,1.3-2.41,2.55l-4.59,5.15c-1.69,1.9-3.3,2.91-5,2.92a7,7,0,0,1-4.49-2,8.65,8.65,0,0,1-2.52-3.56l2.05-1.29a7.43,7.43,0,0,0,2,3.06c1.5,1.33,3.31,1.54,5.06-.42l.7-.78,0,0a4.1,4.1,0,0,1-3.84-1c-2.26-2-2.2-5.31.09-7.89,2.66-3,6.22-3.07,8.4-1.12a3.84,3.84,0,0,1,1.37,3.77l0,0,1.17-1.13Zm-5.62,1.53a2.86,2.86,0,0,0,.48-.69,2.56,2.56,0,0,0-.55-3.14c-1.29-1.14-3.24-.87-4.89,1-1.38,1.54-1.71,3.49-.27,4.78a2.62,2.62,0,0,0,3.09.28,4.84,4.84,0,0,0,.83-.74Zm.49,10,7.66-9.47,2.41,1.95-7.66,9.47Zm12.34-10.05a1.73,1.73,0,0,1-2.68-2.17,1.72,1.72,0,0,1,2.68,2.17Zm6.18,16.34c-2.64,3.62-6.36,3.37-8.87,1.54a5.89,5.89,0,0,1-1.21-8.67c2.36-3.23,5.93-3.66,8.9-1.48S151.43,459.54,149.24,462.52Zm-7.47-5.32c-1.39,1.9-1.51,4,0,5.12s3.42.36,4.87-1.61c1.12-1.53,1.72-3.79,0-5S143,455.57,141.77,457.2Zm11.24,5c.75-1.18,1.36-2.19,1.86-3.12l2.28,1.45-.86,1.62.07,0a4.39,4.39,0,0,1,4.4.31c1.79,1.14,2.91,3.48.84,6.73l-3.87,6.1-2.6-1.65,3.69-5.81c.94-1.47,1.1-2.94-.31-3.84a2.6,2.6,0,0,0-3,.23,3.38,3.38,0,0,0-.64.78l-3.83,6-2.62-1.67Zm24.33,23.14a10.58,10.58,0,0,1-4.21-1.32c-4.77-2.44-6.13-6.91-3.79-11.47,2.53-4.94,7.49-6.16,12.07-3.81a9.63,9.63,0,0,1,3.31,2.54L183,473.18a8.19,8.19,0,0,0-2.64-2.08c-3.05-1.56-6.23-.78-8.08,2.82-1.69,3.3-.84,6.4,2.45,8.09a8.65,8.65,0,0,0,3.27,1Zm9.83-14.47,2.84,1.22-2.86,6.66,0,0a4.14,4.14,0,0,1,2-.68,4.31,4.31,0,0,1,2.15.32c1.9.82,3.36,2.95,1.82,6.53l-2.84,6.59-2.82-1.21,2.69-6.27c.7-1.64.63-3.11-.93-3.78a2.54,2.54,0,0,0-2.86.65,2.46,2.46,0,0,0-.48.8L183,488.43l-2.84-1.22Zm13.45,24.45.27-1.34-.07,0a4.54,4.54,0,0,1-3.94.32,3.62,3.62,0,0,1-2.38-4.7c1-2.89,4.11-3.44,8.34-1.91l.07-.18c.27-.76.41-2.11-1.62-2.84a6.53,6.53,0,0,0-3.38-.25l.1-2.08a8.76,8.76,0,0,1,4.5.46c3.68,1.31,3.91,4,3,6.51l-1.48,4.15a19.76,19.76,0,0,0-.81,2.81Zm1.62-5.74c-2-.77-4.14-1-4.76.72a1.61,1.61,0,0,0,1.06,2.23,2.48,2.48,0,0,0,2.82-.77,2.19,2.19,0,0,0,.32-.6Zm7.1-.21c.36-1.35.65-2.49.85-3.52l2.55.68-.34,1.78.07,0a4.18,4.18,0,0,1,4.16-1,3.51,3.51,0,0,1,2.68,3.05h0a4.54,4.54,0,0,1,1.85-1.08,4,4,0,0,1,2.55-.07c2,.53,3.58,2.39,2.57,6.16l-1.87,6.92-2.89-.78,1.74-6.49c.53-1.95.17-3.3-1.26-3.68a2.35,2.35,0,0,0-2.5,1,4.32,4.32,0,0,0-.41.95l-1.9,7.05-2.89-.78,1.83-6.81c.44-1.64.1-3-1.28-3.34a2.38,2.38,0,0,0-2.57,1.12,2.52,2.52,0,0,0-.43.92L210,498.44l-2.9-.78Zm19.28,13.71c.2-.8.48-2.12.71-3.35l2.54-14.1,3,.55-1.29,7.13h0a4.39,4.39,0,0,1,4.18-1.22c2.93.52,4.58,3.34,3.9,7-.78,4.31-3.89,6-6.6,5.47a4.2,4.2,0,0,1-3.42-2.75h-.05l-.47,1.77Zm4-4.38a3.08,3.08,0,0,0-.06.73,2.82,2.82,0,0,0,2.3,2.6c1.9.34,3.33-1,3.76-3.39.38-2.11-.31-4-2.33-4.38a2.85,2.85,0,0,0-3.08,1.73,2.91,2.91,0,0,0-.24.77Zm14.13,2.06c-.18,2.19,1.42,3.33,3.36,3.55a9.06,9.06,0,0,0,3.42-.16l.2,2.16a11.31,11.31,0,0,1-4.31.26c-3.92-.45-5.95-3.12-5.53-6.82.39-3.35,2.79-6.27,6.66-5.83s4.84,3.83,4.54,6.49a8.2,8.2,0,0,1-.25,1.28Zm5.56-1.53c.15-1.11-.14-3-2.17-3.24a3,3,0,0,0-3.15,2.63Zm5.77-.36c.1-1.65.15-2.82.15-3.93l2.67.17-.05,2.33h.1a3.63,3.63,0,0,1,3.48-2.39,3.73,3.73,0,0,1,.72.12l-.18,2.9a4.45,4.45,0,0,0-.9-.16,2.7,2.7,0,0,0-2.89,2.15,4.83,4.83,0,0,0-.16.94l-.4,6.29-3.07-.2Zm26.2,2.57c.06,4.48-3.06,6.52-6.17,6.56a5.88,5.88,0,0,1-6.18-6.19c-.05-4,2.54-6.49,6.22-6.54S284.25,497.77,284.3,501.47Zm-9.17.25c0,2.35,1.2,4.11,3.08,4.08s3-1.76,2.91-4.21c0-1.9-.9-4.06-3-4S275.1,499.69,275.13,501.72Zm12.84,5.7-.64-9.85-1.65.11-.14-2.3,1.64-.11,0-.52a5.72,5.72,0,0,1,1.2-4.24,4.72,4.72,0,0,1,3.1-1.38,5.83,5.83,0,0,1,2,.18l-.08,2.38a3.77,3.77,0,0,0-1.31-.14c-1.52.1-2,1.41-1.86,2.9l0,.63,2.67-.18.14,2.3-2.64.17.64,9.86Zm26-3.37a10.5,10.5,0,0,1-4.2,1.36c-5.3.76-9-2.1-9.72-7.17-.78-5.5,2.55-9.36,7.65-10.09a9.71,9.71,0,0,1,4.17.16l-.32,2.53a8,8,0,0,0-3.36-.18c-3.39.48-5.54,3-5,7,.53,3.67,3,5.71,6.68,5.19a8.57,8.57,0,0,0,3.23-1.1ZM327,495.53c.92,4.38-1.75,7-4.78,7.63a5.9,5.9,0,0,1-7.27-4.89c-.82-3.91,1.24-6.85,4.84-7.61S326.26,491.91,327,495.53Zm-9,2c.49,2.3,2,3.8,3.82,3.41s2.55-2.3,2.05-4.7c-.4-1.86-1.68-3.81-3.73-3.38S317.66,495.56,318.07,497.55Zm11.3-4.92c-.4-1.34-.76-2.46-1.13-3.44l2.54-.76.63,1.69.07,0a4.24,4.24,0,0,1,3-3.06,3.52,3.52,0,0,1,3.88,1.19h.05a4.56,4.56,0,0,1,1-1.89,4.07,4.07,0,0,1,2.14-1.4c1.94-.58,4.29.15,5.41,3.88l2.06,6.88-2.88.86-1.92-6.44c-.58-2-1.6-2.89-3-2.47a2.35,2.35,0,0,0-1.6,2.17,4.84,4.84,0,0,0,.15,1l2.1,7-2.88.86-2-6.75c-.48-1.63-1.47-2.59-2.84-2.18a2.4,2.4,0,0,0-1.61,2.31,2.67,2.67,0,0,0,.12,1l2.07,6.9-2.88.86ZM350,486.26c-.53-1.3-1-2.37-1.47-3.32l2.45-1,.8,1.62.07,0a4.24,4.24,0,0,1,2.68-3.34,3.51,3.51,0,0,1,4,.8l0,0a4.6,4.6,0,0,1,.81-2,4,4,0,0,1,2-1.61c1.87-.77,4.29-.27,5.77,3.33l2.73,6.64-2.77,1.14-2.56-6.22c-.77-1.87-1.87-2.72-3.24-2.16a2.35,2.35,0,0,0-1.37,2.32,4.81,4.81,0,0,0,.25,1l2.78,6.75-2.77,1.14-2.68-6.52c-.65-1.57-1.73-2.42-3-1.88a2.4,2.4,0,0,0-1.37,2.45,2.68,2.68,0,0,0,.22,1l2.74,6.66-2.77,1.14Zm23.28-6.52c1.06,1.93,3,2,4.77,1.11a9.12,9.12,0,0,0,2.76-2l1.36,1.69a11.45,11.45,0,0,1-3.45,2.59c-3.52,1.79-6.69.68-8.38-2.64-1.53-3-1.13-6.77,2.34-8.54s6.15.53,7.37,2.91a7.54,7.54,0,0,1,.49,1.2Zm3.8-4.34c-.49-1-1.78-2.43-3.6-1.51a3,3,0,0,0-1.18,3.94Zm4.6-3.48c-.82-1.43-1.43-2.44-2-3.35l2.32-1.34,1.24,2,.09-.05a3.62,3.62,0,0,1,1.59-3.91,3.78,3.78,0,0,1,.66-.3l1.45,2.52a3.93,3.93,0,0,0-.83.36,2.7,2.7,0,0,0-1.23,3.39,4.6,4.6,0,0,0,.39.87l3.13,5.46-2.66,1.53Zm19.55-2.69a9,9,0,0,1-2.57,2.38c-3.21,2-6.6,1.33-8.62-1.86s-1.39-6.82,2.21-9.11a7.61,7.61,0,0,1,2.82-1.12l.77,2.24a5.27,5.27,0,0,0-2.21.84,3.94,3.94,0,0,0,4.23,6.64,6,6,0,0,0,1.79-1.7Zm1.27-6.8c1.35,1.74,3.3,1.51,4.89.37a9.18,9.18,0,0,0,2.42-2.41l1.61,1.46a11.55,11.55,0,0,1-3,3.09c-3.21,2.3-6.51,1.69-8.69-1.34-2-2.74-2.15-6.51,1-8.79s6.16-.42,7.72,1.75a9.81,9.81,0,0,1,.68,1.12Zm3.1-4.87c-.64-.92-2.12-2.13-3.79-.94a3,3,0,0,0-.56,4.06Zm18.87-5.69-1-.89-.06,0a4.51,4.51,0,0,1-1.68,3.58,3.62,3.62,0,0,1-5.26-.27c-2-2.34-.94-5.29,2.5-8.19l-.13-.16c-.52-.61-1.63-1.4-3.26,0a6.43,6.43,0,0,0-1.91,2.81l-1.75-1.13a8.62,8.62,0,0,1,2.65-3.68c3-2.53,5.42-1.38,7.15.63l2.86,3.35a20,20,0,0,0,2,2.11Zm-4.17-4.26c-1.69,1.37-3,3.08-1.76,4.49a1.61,1.61,0,0,0,2.47.19,2.5,2.5,0,0,0,.74-2.83,2.2,2.2,0,0,0-.36-.58Zm3.26-6.32c-1-1-1.81-1.83-2.6-2.53l1.94-1.88,1.38,1.21.05-.06a4.39,4.39,0,0,1,1.33-4.2c1.52-1.48,4.06-2,6.74.74l5,5.19-2.21,2.14L430.46,437c-1.22-1.25-2.6-1.75-3.81-.59a2.59,2.59,0,0,0-.47,3,3,3,0,0,0,.61.81l5,5.13-2.22,2.16Zm11.13-24.77s12.59,11.31,13.24,11.82l-1.84,2-1.52-1.2,0,0a4.38,4.38,0,0,1-1,4.43c-2,2.15-5.32,2.2-8.11-.32-3-2.71-3.13-6.23-1.17-8.4a3.91,3.91,0,0,1,3.49-1.47l0,0-5.12-4.63Zm5.84,9.42a3.82,3.82,0,0,0-.64-.48,2.67,2.67,0,0,0-3.39.51c-1.33,1.46-.76,3.45.92,5s3.6,1.76,4.91.31a2.76,2.76,0,0,0,.16-3.42,3.75,3.75,0,0,0-.6-.68Zm2.08-17.88,13.3,10.33-1.88,2.43-13.31-10.34Zm8.92,2c-1.15-.8-2.12-1.45-3-2l1.55-2.22,1.58.93,0-.06a4.39,4.39,0,0,1,.5-4.38c1.22-1.74,3.6-2.76,6.76-.55l5.92,4.14-1.76,2.52-5.64-3.94c-1.43-1-2.89-1.23-3.85.14a2.59,2.59,0,0,0,.1,3,3.09,3.09,0,0,0,.75.67l5.85,4.1L458.57,415Zm6.22-26.41s14.51,8.71,15.24,9.09l-1.42,2.36-1.71-.89,0,0a4.38,4.38,0,0,1-.17,4.54c-1.5,2.48-4.81,3.17-8,1.23-3.5-2.08-4.26-5.52-2.75-8a3.88,3.88,0,0,1,3.14-2.1l0-.05-5.91-3.56Zm7.53,8.14a4.89,4.89,0,0,0-.73-.35,2.68,2.68,0,0,0-3.23,1.15c-1,1.69-.09,3.53,1.86,4.71s3.86,1.05,4.87-.62a2.76,2.76,0,0,0-.49-3.4,3.79,3.79,0,0,0-.72-.55Zm11.48-14c1.29.67,2.38,1.17,3.29,1.59l-1.24,2.4-1.71-.72,0,.05a4.38,4.38,0,0,1,.1,4.44c-1,2-3.12,3.17-6.66,1.34l-6.35-3.28,1.41-2.73,5.89,3c1.8.93,3.25.95,4-.5a2.56,2.56,0,0,0-.39-2.84,2.76,2.76,0,0,0-.77-.59l-6.53-3.38,1.41-2.73Zm2.34-3.09a6.82,6.82,0,0,0,2.07-2.5c.55-1.23.29-2-.44-2.33s-1.35-.05-2.44,1.11c-1.72,1.83-3.31,2.22-4.6,1.62-2-.88-2.78-3.18-1.63-5.76a7.1,7.1,0,0,1,2-2.65l1.74,1.43a5.52,5.52,0,0,0-1.69,2.07c-.44,1-.21,1.76.48,2.07s1.28-.06,2.41-1.25c1.62-1.69,3.07-2.17,4.73-1.46,2,.9,2.77,3.12,1.46,6.07a7.89,7.89,0,0,1-2.28,3Zm-6.24-18.17,3.24,1.27,1.07-2.72,2.14.83-1.07,2.73,5,2c1.37.53,2.24.45,2.67-.65a4.54,4.54,0,0,0,.29-1.17l2.21.81a6.88,6.88,0,0,1-.53,2.18,3.53,3.53,0,0,1-1.9,2.1,4.86,4.86,0,0,1-3.51-.35l-5.33-2.09-.64,1.63-2.14-.84.64-1.63-2.56-1Zm8.84-2.49c-1.56-.53-2.68-.89-3.74-1.18l.87-2.53,2.23.67,0-.1a3.62,3.62,0,0,1-1.37-4,2.87,2.87,0,0,1,.3-.66l2.74.94a4.94,4.94,0,0,0-.38.82,2.71,2.71,0,0,0,1.3,3.36,4.71,4.71,0,0,0,.87.4l5.95,2-1,2.9Zm-.13-12.2,6.88-.33c.79,0,1.75,0,2.47,0l0-.08-7.86-4.89.91-3.17,7.14,5.21c3.92,2.86,5.56,4.49,6.36,6.23a6.12,6.12,0,0,1,.63,3.54l-2.69,0a5.4,5.4,0,0,0-.32-2,5.71,5.71,0,0,0-1.39-2.14,1.34,1.34,0,0,0-.48-.34,1.22,1.22,0,0,0-.62,0l-12,1.21Z"
          style="fill:#e8e6e6"/>
    <path d="M442,273.53V295H420.5v-21.5ZM420.5,300.24v21.5H442v-21.5Zm0,26.71v21.51H442V327Zm0,26.72v21.5H442v-21.5Zm-26.71-80.14V295h21.5v-21.5Zm0,26.71v21.5h21.5v-21.5Zm0,26.71v21.51h21.5V327Zm0,26.72v21.5h21.5v-21.5Zm0,26.71v21.5h21.5v-21.5ZM367.08,246.81v21.51h21.5V246.81Zm0,26.72V295h21.5v-21.5Zm0,26.71v21.5h21.5v-21.5Zm0,26.71v21.51h21.5V327Zm0,26.72v21.5h21.5v-21.5Zm0,26.71v21.5h21.5v-21.5Zm0,26.71V428.6h21.5V407.09ZM340.37,246.81v21.51h21.5V246.81Zm0,26.72V295h21.5v-21.5Zm0,26.71v21.5h21.5v-21.5Zm0,26.71v21.51h21.5V327Zm0,26.72v21.5h21.5v-21.5Zm0,26.71v21.5h21.5v-21.5Zm0,26.71V428.6h21.5V407.09Zm0,26.72v21.5h21.5v-21.5ZM313.65,193.39v21.5h21.5v-21.5Zm0,26.71v21.5h21.5V220.1Zm0,26.71v21.51h21.5V246.81Zm0,26.72V295h21.5v-21.5Zm0,26.71v21.5h21.5v-21.5Zm0,26.71v21.51h21.5V327Zm0,26.72v21.5h21.5v-21.5Zm0,26.71v21.5h21.5v-21.5Zm0,26.71V428.6h21.5V407.09ZM286.94,140v21.51h21.5V140Zm0,26.72v21.5h21.5v-21.5Zm0,26.71v21.5h21.5v-21.5Zm0,26.71v21.5h21.5V220.1Zm0,26.71v21.51h21.5V246.81Zm0,53.43v21.5h21.5v-21.5Zm0,26.71v21.51h21.5V327Zm0,26.72v21.5h21.5v-21.5Zm0,26.71v21.5h21.5v-21.5ZM260.23,140v21.51h21.5V140Zm0,26.72v21.5h21.5v-21.5Zm0,26.71v21.5h21.5v-21.5Zm0,26.71v21.5h21.5V220.1Zm0,106.85v21.51h21.5V327Zm0,26.72v21.5h21.5v-21.5Zm0,26.71v21.5h21.5v-21.5ZM233.51,140v21.51H255V140Zm0,26.72v21.5H255v-21.5Zm0,26.71v21.5H255v-21.5Zm0,26.71v21.5H255V220.1Zm0,26.71v21.51H255V246.81Zm0,133.57v21.5H255v-21.5ZM206.8,166.68v21.5h21.5v-21.5Zm0,26.71v21.5h21.5v-21.5Zm0,26.71v21.5h21.5V220.1Zm0,26.71v21.51h21.5V246.81Zm0,26.72V295h21.5v-21.5Zm0,26.71v21.5h21.5v-21.5Zm0,26.71v21.51h21.5V327ZM180.09,193.39v21.5h21.5v-21.5Zm0,26.71v21.5h21.5V220.1Zm0,26.71v21.51h21.5V246.81Zm0,26.72V295h21.5v-21.5Zm0,26.71v21.5h21.5v-21.5Zm0,26.71v21.51h21.5V327ZM153.37,193.39v21.5h21.51v-21.5Zm0,26.71v21.5h21.51V220.1Zm0,26.71v21.51h21.51V246.81Zm0,26.72V295h21.51v-21.5Zm0,26.71v21.5h21.51v-21.5Zm0,26.71v21.51h21.51V327ZM126.66,193.39v21.5h21.5v-21.5Zm0,26.71v21.5h21.5V220.1Zm0,26.71v21.51h21.5V246.81Zm0,26.72V295h21.5v-21.5Zm0,26.71v21.5h21.5v-21.5Zm0,26.71v21.51h21.5V327ZM100,220.1v21.5h21.5V220.1Zm0,26.71v21.51h21.5V246.81Zm0,26.72V295h21.5v-21.5Zm0,26.71v21.5h21.5v-21.5Z"
          style="fill:#fff"/>
    <path d="M283.39,337.16c-.11,4.94-1.06,43.82-1.13,46.9a154.46,154.46,0,0,1-14.84-11.73c-.63-25.94-.84-35.28-1.15-47.11C272,328.52,278.53,332.68,283.39,337.16ZM395.58,130.45a24,24,0,0,0-1.8-9c-58.9,21.34-79.43,19.82-79.43,44.6,0,14.11,6.89,13.28,4.25,18.71,7.16,7.89,13,15.8,18.39,21.28,4.6-3.46,7.73-11,7.73-16.87,0-12.23-11.31-16.39-11.39-25.3C333.11,142,395.58,159.82,395.58,130.45Zm-49,51.29,20.26-.2c-3.14,16.16-18.28,17-21.23,17h-.49a23.29,23.29,0,0,0,2.42-9.75A19.8,19.8,0,0,0,346.54,181.74Zm-9.24-13.9H377s-1.38,9.9-13.6,11.2h-18C342.93,174.49,339.06,171.78,337.3,167.84Zm47-17.46v.12c0,3.46-3.18,14.13-14.66,14.13h-33.2C335.1,152.84,359.31,154,384.28,150.38ZM231.35,184.8c-7.16,7.9-12.93,15.76-18.38,21.28-4.6-3.45-7.74-11-7.74-16.87,0-12.23,11.31-16.39,11.4-25.3.21-21.89-62.26-4.09-62.26-33.46a24,24,0,0,1,1.8-9c58.91,21.34,79.44,19.82,79.44,44.6C235.61,180.13,228.81,179.21,231.35,184.8Zm-28.89,3.93a23.29,23.29,0,0,0,2.42,9.75c-13-.55-19.81-7.07-21.72-16.94l20.26.2A19.8,19.8,0,0,0,202.46,188.73Zm2.13-9.69h-18c-12.22-1.3-13.6-11.2-13.6-11.2h39.65C210.9,171.78,207,174.49,204.59,179Zm8.95-14.41h-33.2c-11.48,0-14.66-10.67-14.66-14.13v-.12C190.65,154,214.86,152.84,213.54,164.63Zm101,258.22c0,16.89-14.54,25.23-22.67,28.56a.6.6,0,0,1-.56-1.05c7.87-5.38,11.29-11.6,11.29-20.56,0-30.05-66.47-35.28-66.47-76.67,0-12.79,7.88-24.19,18.73-34.17,3.2,1.7,6.34,3.39,9.36,5.11.1,4.07.2,8.17.3,12.27-5.72,5.44-9.27,11.42-9.27,18.36C255.27,380.08,314.56,396.42,314.56,422.85Zm34.75-157.27c0,23.63-28.36,37.41-53.93,51-1.8-1.66-5.3-4.61-9.29-7.59.1-4.26.21-8.47.3-12.59,11.18-6.79,21.32-12.39,26.76-16.75,26.36-21.14-9.65-29.45-5.54-14.88-3.44,1.72-12.81-5.9-12.81-13.9C294.8,226.28,349.31,227.37,349.31,265.58ZM281.73,405.83c-.7,29.16-1.2,50.45-1.2,52.09,0,3.47-2.19,5.21-5.73,5.21-.94,0-5.37-.26-5.37-5.21,0-2.84-1.25-53.52-1.25-54.45-10.29,6.36-20.84,14.84-20.84,26.33,0,9,3.41,15.18,11.28,20.56a.6.6,0,0,1-.55,1.05c-8.13-3.33-22.68-11.67-22.68-28.56,0-11.64,11.62-21.36,24.58-30.78C266.62,396.67,274.78,401.25,281.73,405.83Zm32.07-52.7c0,16.66-10.84,27.52-23.76,36.5l-5.82-4.16q.15-6,.3-12.23c24.64-23.58.86-40.83-29.94-56.7-25.58-13.55-53.94-27.33-53.94-51,0-38.42,54.52-39.14,54.52-14.75,0,8-9.35,15.63-12.82,13.9,4.12-14.6-31.85-6.24-5.53,14.88C253.38,292.91,313.8,317.7,313.8,353.13ZM286.22,222.38c-1.21,49.18-1.93,78.77-2.1,85.11-5.75-4.23-12.47-8.54-18.59-12.27-1-40.62-1.79-72.84-1.79-72.84Zm58.4-2.94H205.34c-4.89,0-4.4-4.88-4.4-4.88a15.77,15.77,0,0,0,10.12-3.32c14.89-12.1,31.5-47.33,63.92-47.33s49,35.23,63.91,47.33A15.79,15.79,0,0,0,349,214.56S349.5,219.44,344.62,219.44Z"
          style="fill:#ccaa59"/>
</svg>